<?xml version="1.0" standalone="no"?>
<!DOCTYPE svg PUBLIC "-//W3C//DTD SVG 20010904//EN"
 "http://www.w3.org/TR/2001/REC-SVG-20010904/DTD/svg10.dtd">
<svg version="1.0" xmlns="http://www.w3.org/2000/svg"
 width="225.000000pt" height="225.000000pt" viewBox="0 0 225.000000 225.000000"
 preserveAspectRatio="xMidYMid meet">
<metadata>
Created by potrace 1.16, written by Peter Selinger 2001-2019
</metadata>
<g transform="translate(0.000000,225.000000) scale(0.100000,-0.100000)"
fill="#000000" stroke="none">
<path d="M1085 2204 c-11 -8 -69 -30 -129 -50 -60 -19 -126 -44 -147 -55 -38
-19 -75 -70 -61 -84 4 -4 -9 -4 -29 0 -51 9 -102 -19 -205 -115 -47 -43 -98
-85 -115 -92 -26 -11 -29 -18 -29 -58 0 -25 -5 -61 -10 -80 -21 -70 -40 -205
-34 -236 3 -18 14 -41 24 -52 18 -19 18 -20 -1 -38 -26 -23 -26 -121 1 -232
11 -46 20 -105 20 -133 0 -29 5 -49 11 -49 14 0 45 -25 132 -103 111 -100 145
-120 195 -113 39 5 42 4 42 -18 0 -41 68 -81 204 -122 45 -14 98 -33 119 -43
38 -19 39 -19 90 3 29 13 86 33 127 46 120 36 190 80 190 119 0 12 11 16 48
16 54 0 84 19 197 123 38 35 81 70 96 79 23 14 30 26 34 62 3 26 13 75 21 111
9 36 18 102 21 146 5 74 4 83 -16 103 l-22 22 21 26 c26 33 26 98 1 213 -11
47 -22 111 -26 143 -4 31 -11 57 -15 57 -10 0 -72 50 -141 114 -83 77 -141
110 -184 103 -29 -5 -35 -3 -35 13 0 34 -68 77 -184 115 -61 21 -128 46 -148
56 -44 22 -38 22 -63 3z m210 -139 c235 -61 449 -270 512 -500 124 -453 -195
-900 -658 -923 -137 -6 -232 14 -359 76 -175 85 -319 262 -375 462 -25 88 -26
270 -2 360 75 281 310 496 591 541 70 11 218 3 291 -16z"/>
<path d="M1068 2024 c17 -8 15 -34 -4 -34 -8 0 -12 5 -9 10 10 16 -1 11 -16
-7 -12 -14 -12 -16 0 -9 9 6 12 5 9 -5 -3 -8 -12 -13 -19 -11 -12 3 -12 1 -1
-10 11 -11 16 -10 28 7 13 17 16 18 24 5 7 -11 10 -7 10 18 0 22 5 32 16 32
10 0 14 -7 12 -22 -2 -19 1 -22 20 -20 15 2 22 -2 22 -12 0 -9 -4 -16 -10 -16
-5 0 -10 -5 -10 -11 0 -8 5 -8 15 1 8 7 15 25 15 41 0 33 9 40 40 32 l24 -6
-22 -8 c-12 -5 -22 -16 -22 -26 1 -17 1 -17 11 0 14 23 27 21 32 -5 4 -20 4
-19 6 5 1 22 6 27 26 27 28 0 101 -27 93 -35 -2 -3 -20 0 -39 5 -48 14 -59 13
-58 -7 0 -11 3 -13 6 -5 5 14 33 17 33 3 0 -5 8 -7 19 -4 10 3 22 0 25 -6 5
-7 -2 -11 -16 -12 -17 -1 -18 -3 -5 -6 9 -2 17 -10 17 -16 1 -7 8 0 16 16 8
15 21 27 30 27 11 0 12 -4 4 -19 -13 -26 -13 -31 4 -31 8 0 16 -8 19 -17 3
-15 6 -13 17 9 7 15 18 24 26 21 11 -4 11 -9 -1 -26 -22 -31 -18 -46 4 -19 22
26 34 28 51 7 17 -20 5 -32 -15 -15 -10 8 -15 9 -15 1 0 -6 5 -11 11 -11 6 0
8 -9 3 -22 l-6 -23 24 23 c29 26 38 28 38 6 0 -9 5 -12 11 -8 7 4 10 1 7 -7
-3 -8 -15 -13 -27 -12 -13 2 -20 -1 -16 -7 9 -15 45 -12 51 4 10 25 -26 65
-100 110 -102 64 -208 97 -326 102 -52 2 -89 1 -82 -2z"/>
<path d="M1087 1913 c-4 -3 -7 -27 -7 -53 0 -41 -8 -59 -55 -130 -41 -62 -55
-92 -55 -119 0 -32 -5 -39 -37 -56 -60 -33 -122 -101 -155 -171 -24 -52 -31
-79 -32 -137 l-1 -72 47 -3 47 -3 -14 28 c-20 37 -19 62 4 96 10 16 16 37 14
47 -6 24 32 35 70 21 21 -8 27 -8 27 3 0 31 66 35 102 6 l25 -19 11 24 c8 17
20 25 37 25 17 0 29 -8 37 -25 l11 -24 25 19 c32 26 78 26 94 1 9 -16 16 -17
37 -10 35 14 73 3 69 -19 -1 -10 6 -37 16 -60 18 -41 18 -45 3 -78 l-17 -35
47 3 48 3 3 45 c9 116 -61 246 -171 320 -63 42 -67 47 -67 83 0 31 -8 46 -45
86 -40 43 -45 53 -45 96 0 77 -42 140 -73 108z m27 -56 c-5 -33 -1 -56 15 -92
26 -58 27 -93 4 -112 -10 -8 -13 -12 -6 -9 21 11 43 -6 43 -34 0 -18 -7 -30
-22 -38 -23 -11 -23 -11 3 -11 34 -1 59 -28 34 -37 -12 -5 -13 -9 -5 -14 17
-11 3 -30 -23 -31 -17 -1 -18 -2 -4 -6 9 -2 15 -9 12 -14 -7 -10 -65 -12 -91
-2 -16 6 -16 7 2 14 16 6 15 8 -8 8 -16 1 -28 6 -28 12 0 6 17 8 48 4 l47 -5
-62 20 c-50 16 -66 27 -79 52 -22 42 -11 87 35 145 49 63 61 86 61 120 0 38
10 73 21 73 5 0 6 -20 3 -43z"/>
<path d="M1084 1348 c-14 -24 -38 -55 -51 -70 -28 -29 -33 -69 -13 -93 30 -36
126 -41 176 -10 40 25 36 61 -12 118 -24 28 -44 56 -44 63 0 6 -6 17 -14 24
-12 9 -20 4 -42 -32z"/>
<path d="M960 1353 c0 -10 -11 -36 -25 -58 -13 -22 -25 -50 -25 -62 0 -27 54
-73 86 -73 24 0 24 1 10 22 -24 33 -19 63 14 101 34 39 36 49 14 71 -22 22
-74 21 -74 -1z"/>
<path d="M1196 1354 c-22 -22 -20 -32 14 -71 34 -38 38 -68 13 -102 l-16 -24
33 7 c41 8 80 42 80 70 0 12 -11 38 -25 58 -14 20 -25 46 -25 57 0 17 -6 21
-29 21 -16 0 -37 -7 -45 -16z"/>
<path d="M553 1018 c6 -19 658 -19 665 0 3 9 -68 12 -333 12 -265 0 -336 -3
-332 -12z"/>
<path d="M1262 1023 c-30 -6 -23 -27 11 -31 50 -6 27 -22 -28 -20 -68 3 -91
-14 -58 -42 31 -25 104 -33 190 -21 120 18 178 50 141 78 -33 25 -200 48 -256
36z"/>
<path d="M870 933 c-66 -11 -91 -25 -88 -46 2 -12 15 -27 29 -34 33 -16 130
-27 163 -19 28 7 36 26 11 26 -8 0 -15 5 -15 10 0 9 27 7 68 -6 18 -5 42 6 42
22 0 7 -10 20 -22 28 -24 14 -144 27 -188 19z"/>
<path d="M820 775 c37 -21 557 -22 586 0 17 13 -17 14 -296 14 -278 0 -312 -1
-290 -14z"/>
<path d="M1924 851 c-22 -9 -52 -67 -40 -78 3 -3 6 1 6 11 0 23 45 66 70 66
11 0 20 -5 20 -11 0 -18 -69 -79 -90 -79 -10 0 -20 -6 -23 -13 -5 -13 -99 -44
-207 -68 -72 -15 -83 -25 -77 -66 5 -30 2 -36 -31 -57 -97 -61 -239 -90 -437
-90 -178 0 -289 19 -385 67 l-65 32 0 44 0 45 -90 21 c-49 12 -113 29 -141 39
-46 15 -53 21 -58 50 -10 52 -47 86 -96 86 l-40 0 0 -42 c-1 -24 -7 -54 -15
-68 -22 -39 -18 -76 11 -99 l25 -20 -20 -40 c-12 -22 -21 -48 -21 -58 1 -10 9
4 20 31 10 26 21 50 23 53 3 2 23 -5 45 -16 22 -11 71 -29 108 -40 111 -31
123 -37 117 -61 -7 -27 11 -46 71 -77 144 -73 308 -106 521 -105 227 0 407 44
548 132 40 25 47 35 45 57 -3 25 2 28 67 48 133 41 123 42 131 -15 7 -55 13
-60 33 -29 11 19 11 21 -2 16 -11 -4 -18 5 -25 33 -9 37 -8 38 26 54 41 20 43
18 69 -61 19 -59 11 -80 -17 -45 -10 12 -21 22 -25 22 -3 0 7 -16 22 -35 27
-33 28 -34 36 -13 9 26 1 71 -24 119 l-18 36 24 22 c27 22 32 59 14 93 -6 11
-14 41 -18 67 -6 42 -9 46 -36 48 -17 1 -39 -2 -51 -6z"/>
<path d="M1196 233 c-4 -4 -45 -6 -91 -4 -56 2 -85 -1 -85 -8 0 -7 21 -11 50
-11 38 0 50 -4 50 -15 0 -16 -8 -18 -52 -15 -14 1 -28 -3 -31 -7 -8 -12 23
-73 36 -73 7 0 7 4 -1 12 -17 17 -15 58 3 58 9 0 15 -9 15 -22 l1 -23 18 23
c11 12 24 22 30 22 14 0 14 -27 1 -35 -5 -3 -10 -14 -10 -23 1 -14 5 -12 21 7
12 14 17 31 13 40 -15 38 -16 51 -2 51 21 0 54 -39 50 -60 -4 -23 16 -36 31
-21 18 18 37 12 50 -16 11 -26 12 -24 15 35 l3 62 49 0 c37 0 50 -4 50 -14 0
-9 -12 -16 -32 -18 -29 -3 -33 -6 -30 -28 2 -14 9 -29 14 -35 8 -7 9 -4 4 9
-7 21 9 46 30 46 7 0 14 -14 16 -32 5 -50 28 -47 26 4 -1 24 2 53 6 66 7 22 7
22 -93 22 -93 0 -129 -10 -81 -23 31 -8 27 -47 -5 -47 -14 0 -24 3 -24 8 5 27
-4 53 -20 61 -10 6 -21 7 -25 4z"/>
<path d="M316 201 c7 -32 -11 -58 -56 -81 -15 -8 -20 -15 -12 -18 7 -2 24 3
37 12 31 20 31 20 41 -6 6 -17 9 -7 11 40 l4 63 77 -3 c77 -3 103 -18 47 -28
-50 -9 -43 -58 12 -88 18 -11 9 -32 -13 -32 -9 0 -14 7 -12 18 2 13 -3 16 -21
14 -15 -2 -21 0 -16 8 11 17 -2 40 -20 34 -24 -10 -18 -43 9 -50 14 -3 27 -12
30 -20 6 -16 52 -19 61 -4 3 5 11 7 18 4 10 -3 12 5 9 31 -4 34 -32 52 -32 20
0 -18 -12 -19 -28 -3 -28 28 -8 58 39 58 12 0 19 7 19 20 0 13 7 20 20 20 18
0 20 -7 20 -55 0 -30 5 -55 10 -55 6 0 10 25 10 55 l0 55 60 0 c53 0 60 -2 60
-20 0 -17 -3 -18 -24 -8 -31 14 -56 4 -56 -21 0 -24 36 -52 57 -44 8 3 20 -3
28 -13 13 -17 14 -13 15 44 0 60 1 63 23 60 19 -3 22 -10 25 -53 5 -76 22 -81
22 -6 l0 62 47 -3 c36 -2 49 -7 51 -20 3 -15 -4 -18 -32 -18 -25 0 -36 -5 -36
-14 0 -19 23 -33 28 -18 2 7 12 12 23 12 13 0 19 -7 19 -24 0 -14 5 -28 10
-31 6 -4 10 17 10 54 0 36 4 61 11 61 5 0 7 4 4 10 -4 6 -118 10 -310 10
l-304 0 5 -29z"/>
<path d="M1540 220 c0 -5 23 -10 50 -10 39 0 50 -4 50 -16 0 -11 -8 -15 -27
-14 -42 3 -50 0 -30 -11 23 -14 22 -39 -3 -39 -11 0 -20 -5 -20 -10 0 -18 31
-23 47 -8 12 12 13 20 4 37 -10 18 -9 21 9 21 16 0 20 -6 20 -34 0 -22 6 -36
16 -40 11 -4 15 0 14 17 -1 12 -2 39 -1 60 1 30 5 37 21 37 18 0 20 -7 20 -55
0 -30 5 -55 10 -55 6 0 10 25 10 55 l0 55 50 0 c43 0 50 -3 50 -20 0 -16 -7
-20 -30 -20 -23 0 -30 -4 -30 -20 0 -11 5 -20 10 -20 6 0 10 5 10 10 0 6 9 10
20 10 15 0 20 -7 20 -24 0 -14 4 -27 9 -31 6 -3 11 19 13 52 3 53 5 58 27 61
22 4 23 1 18 -31 -6 -37 14 -70 28 -47 11 19 45 11 45 -10 0 -11 5 -20 10 -20
6 0 10 25 10 55 0 32 4 55 11 55 5 0 7 5 4 10 -4 6 -93 10 -236 10 -146 0
-229 -4 -229 -10z"/>
</g>
</svg>
