<?xml version="1.0" standalone="no"?>
<!DOCTYPE svg PUBLIC "-//W3C//DTD SVG 20010904//EN"
 "http://www.w3.org/TR/2001/REC-SVG-20010904/DTD/svg10.dtd">
<svg version="1.0" xmlns="http://www.w3.org/2000/svg"
 width="1281.000000pt" height="317.000000pt" viewBox="0 0 1281.000000 317.000000"
 preserveAspectRatio="xMidYMid meet">
<metadata>
Created by potrace 1.16, written by Peter Selinger 2001-2019
</metadata>
<g transform="translate(0.000000,317.000000) scale(0.100000,-0.100000)"
fill="#000000" stroke="none">
<path d="M1125 3144 c-22 -13 -91 -40 -154 -60 -190 -60 -256 -98 -275 -161
-6 -18 -12 -21 -41 -16 -52 8 -127 -34 -231 -128 -95 -88 -185 -159 -200 -159
-5 0 -10 -26 -11 -58 -1 -31 -13 -106 -26 -167 -45 -196 -44 -267 3 -310 l20
-18 -21 -23 c-45 -48 -45 -135 1 -327 11 -48 23 -115 25 -148 3 -54 7 -63 30
-75 33 -17 59 -38 180 -147 121 -109 161 -131 227 -125 44 5 48 3 48 -17 0
-26 51 -76 105 -103 22 -11 92 -36 156 -56 64 -20 138 -47 164 -60 l48 -25 46
23 c25 13 105 42 176 65 72 23 149 53 172 67 47 27 83 68 83 94 0 15 7 17 44
13 61 -7 119 27 248 144 56 52 121 106 144 119 41 24 41 25 47 97 3 39 17 122
31 182 38 162 32 260 -16 286 -20 11 -20 11 0 25 50 35 53 133 8 331 -15 61
-26 133 -26 160 0 45 -3 49 -38 70 -20 12 -80 60 -132 108 -52 48 -118 102
-147 122 -56 38 -124 53 -148 33 -12 -10 -15 -10 -15 4 0 34 -31 76 -74 101
-24 14 -110 48 -191 75 -81 27 -163 58 -182 70 -19 11 -35 20 -36 19 -1 0 -20
-12 -42 -25z m205 -168 c221 -40 434 -168 567 -341 62 -80 143 -241 167 -330
40 -152 39 -340 -4 -493 -92 -329 -367 -586 -703 -658 -156 -33 -372 -14 -522
46 -561 223 -761 910 -410 1406 58 81 186 200 271 250 193 114 422 158 634
120z"/>
<path d="M1125 2921 c-20 -4 -26 -9 -17 -14 13 -9 17 -37 4 -37 -4 0 -12 10
-17 23 -11 24 -46 30 -53 9 -3 -9 4 -11 25 -7 25 6 26 5 11 -8 -22 -17 -23
-27 -3 -27 8 0 15 -4 15 -10 0 -5 -6 -10 -14 -10 -8 0 -18 5 -21 10 -3 6 -11
10 -17 10 -6 0 -3 -9 7 -20 21 -24 53 -26 61 -5 4 8 10 15 15 15 5 0 9 -7 9
-15 0 -8 5 -15 10 -15 6 0 10 18 10 40 0 29 4 40 15 40 11 0 15 -8 13 -27 -3
-25 0 -28 25 -25 19 2 27 -2 27 -13 0 -8 -7 -15 -16 -15 -10 0 -14 -7 -12 -22
2 -17 11 -24 31 -26 15 -2 27 1 27 7 0 6 -9 11 -20 11 -11 0 -20 5 -20 11 0 5
4 8 9 5 12 -8 21 18 21 60 0 36 13 42 55 24 18 -8 17 -9 -7 -9 -29 -1 -36 -19
-22 -55 10 -25 22 -19 16 9 -3 19 0 25 12 25 12 0 16 -7 14 -22 -2 -11 3 -23
10 -25 8 -3 12 6 12 26 0 16 5 33 11 36 11 8 103 -15 95 -23 -3 -2 -18 0 -33
5 -15 6 -34 8 -40 6 -15 -5 -17 -42 -3 -63 8 -12 10 -9 10 13 0 34 23 36 38 2
6 -14 17 -25 23 -25 7 0 17 -8 24 -17 11 -15 14 -12 24 20 12 36 41 52 41 22
0 -8 -4 -15 -10 -15 -5 0 -10 -9 -10 -20 0 -13 7 -20 20 -20 13 0 20 -7 20
-20 0 -30 16 -24 30 10 7 17 19 30 26 30 18 0 18 -10 -2 -38 -8 -12 -14 -30
-12 -40 2 -13 9 -7 26 20 23 37 24 37 48 22 13 -9 24 -23 24 -32 0 -13 -3 -13
-19 2 -11 10 -25 15 -31 11 -13 -8 -8 -30 8 -31 22 -3 23 -4 12 -23 -17 -33 7
-34 30 -1 27 38 40 38 40 -1 0 -26 -2 -29 -14 -20 -19 16 -28 -1 -17 -31 6
-12 10 -17 10 -10 1 6 12 12 25 12 14 0 28 5 31 10 3 6 11 10 17 10 7 0 -1
-13 -17 -30 -15 -16 -31 -29 -34 -28 -19 2 -22 -4 -10 -19 12 -14 12 -16 -1
-11 -8 2 -19 14 -25 26 -5 12 -13 22 -17 22 -15 0 -8 -19 16 -47 l24 -28 42
48 c23 26 46 45 51 41 5 -3 9 0 9 6 0 16 -107 120 -164 159 -72 50 -186 99
-278 120 -94 22 -209 32 -253 22z"/>
<path d="M840 2910 c0 -5 6 -10 14 -10 7 0 18 -6 24 -13 9 -10 3 -16 -24 -26
-30 -11 -38 -11 -53 3 -23 21 -38 20 -51 -4 -11 -21 -8 -23 25 -21 15 2 13 -3
-12 -19 -25 -17 -36 -19 -52 -11 -25 14 -51 14 -51 0 0 -6 8 -8 18 -5 9 3 23
2 29 -2 8 -5 -8 -22 -48 -52 -71 -52 -167 -152 -150 -158 6 -2 18 2 27 8 12
11 13 10 8 -3 -6 -17 23 -37 53 -36 15 0 14 2 -5 11 -31 16 -25 44 10 40 14
-2 29 2 33 7 3 6 16 11 27 11 21 0 20 2 -7 30 -19 20 -26 33 -19 40 7 7 18 2
34 -15 35 -37 58 -32 26 6 -30 35 -33 49 -11 49 8 0 15 -7 15 -15 0 -9 9 -15
21 -15 20 0 21 1 5 24 -9 14 -12 27 -7 31 6 3 18 -8 27 -25 10 -16 24 -30 31
-30 18 0 16 7 -8 42 -23 32 -23 32 24 59 12 7 17 6 17 -2 0 -7 -8 -18 -17 -25
-14 -10 -16 -15 -6 -25 10 -10 16 -9 26 5 12 17 14 17 20 2 4 -9 13 -16 22
-16 13 0 13 6 -4 39 l-20 38 25 12 c14 6 30 11 37 10 7 0 2 -4 -10 -9 -45 -18
-23 -53 33 -56 27 -1 30 2 26 23 -2 13 1 23 7 23 6 0 11 -7 11 -15 0 -8 5 -15
10 -15 6 0 10 9 10 20 0 21 -27 40 -47 33 -25 -9 -13 8 13 17 14 6 23 14 19
20 -4 6 -15 6 -31 0 -20 -8 -31 -6 -51 10 -28 22 -43 25 -43 10z"/>
<path d="M1146 2777 c-12 -9 -19 -32 -23 -77 -6 -73 -20 -106 -70 -167 -44
-55 -73 -119 -73 -164 0 -33 -4 -38 -42 -55 -61 -27 -159 -128 -196 -202 -39
-79 -55 -154 -50 -242 l3 -70 -163 0 -163 0 3 -22 3 -23 260 -3 c143 -1 271 0
285 4 24 6 24 7 -15 24 -26 12 -65 19 -114 19 l-73 1 4 108 c3 96 7 114 36
174 40 83 114 165 181 202 l51 27 25 -28 c13 -15 25 -34 25 -41 0 -22 109
-122 132 -122 35 0 127 95 128 133 1 7 11 24 23 40 l23 27 59 -35 c80 -47 141
-115 184 -204 33 -70 35 -81 36 -175 l0 -101 -75 -6 c-86 -6 -150 -27 -128
-40 18 -12 548 -12 548 0 0 5 3 16 6 25 5 14 -13 16 -159 16 l-165 0 5 63 c14
175 -95 371 -253 454 -53 27 -54 29 -54 71 0 54 -10 74 -71 139 -49 52 -49 52
-49 120 0 57 -4 75 -25 106 -28 41 -33 43 -59 24z m53 -224 c27 -60 25 -94 -6
-108 -32 -13 -29 -25 6 -25 57 0 66 -56 13 -84 -29 -15 -22 -22 28 -28 32 -4
40 -37 11 -45 -12 -3 -21 -10 -21 -15 0 -6 9 -8 20 -5 26 7 26 -9 1 -23 -25
-13 -122 -13 -157 0 -40 16 -24 21 30 11 50 -9 86 -5 86 10 0 5 -19 9 -42 9
-52 0 -120 30 -142 61 -34 49 -17 123 49 204 59 73 75 107 75 162 0 89 15 95
20 8 4 -53 13 -98 29 -132z"/>
<path d="M1163 2092 c-5 -4 -18 -22 -27 -39 -9 -18 -37 -55 -61 -83 -67 -75
-61 -133 15 -164 78 -31 179 -14 214 35 28 40 20 71 -33 130 -26 29 -55 68
-64 86 -19 37 -29 44 -44 35z"/>
<path d="M970 2047 c0 -13 -13 -44 -30 -68 -56 -83 -30 -151 68 -179 65 -18
74 -13 41 19 -44 44 -40 89 11 145 22 24 40 48 40 53 0 24 -47 53 -88 53 -37
0 -42 -3 -42 -23z"/>
<path d="M1270 2050 c-28 -28 -26 -35 20 -87 56 -65 54 -125 -8 -157 -26 -14
-26 -14 30 -21 63 -8 106 -1 160 26 68 35 87 95 48 154 -11 17 -20 40 -20 52
0 12 -4 25 -10 28 -15 9 -90 -14 -90 -28 0 -7 12 -30 25 -52 28 -45 31 -71 13
-110 -12 -28 -74 -65 -105 -65 -10 1 0 7 22 15 49 17 85 57 85 94 0 15 -13 48
-30 72 -16 24 -30 56 -30 72 0 25 -3 27 -45 27 -32 0 -51 -6 -65 -20z"/>
<path d="M847 2044 c-3 -3 -3 -13 0 -21 3 -8 -7 -36 -21 -64 -27 -49 -27 -49
-9 -87 24 -49 85 -82 160 -88 55 -3 56 -3 20 7 -20 6 -51 24 -67 39 -39 36
-41 89 -5 142 14 20 25 41 25 47 0 16 -90 38 -103 25z"/>
<path d="M400 1707 c0 -35 19 -37 334 -37 170 0 307 3 303 6 -3 3 -37 13 -74
22 -94 21 -563 29 -563 9z"/>
<path d="M1450 1711 c-8 -6 -37 -13 -65 -16 -126 -17 -60 -24 231 -25 l311 0
11 25 12 25 -243 0 c-133 0 -249 -4 -257 -9z"/>
<path d="M440 1636 c0 -4 5 -16 10 -27 10 -18 26 -19 434 -19 415 0 424 0 429
20 3 11 11 20 18 20 10 0 10 -3 1 -12 -17 -17 4 -38 39 -38 15 0 30 -4 33 -9
3 -5 -28 -8 -69 -7 -81 1 -108 -11 -89 -42 6 -9 26 -25 45 -34 68 -36 293 -17
388 31 71 37 45 70 -75 97 -56 13 -173 17 -616 21 -302 3 -548 2 -548 -1z"/>
<path d="M500 1541 c10 -19 23 -20 369 -19 339 2 360 3 364 20 5 17 -12 18
-369 18 -368 0 -375 0 -364 -19z"/>
<path d="M831 1510 c-83 -18 -113 -57 -72 -94 28 -25 78 -36 169 -37 97 -1
121 11 82 41 l-25 20 35 -10 c74 -21 129 -5 114 33 -15 40 -200 69 -303 47z"/>
<path d="M1147 1461 c5 -21 8 -21 308 -21 296 0 302 0 321 21 l19 22 -130 -8
c-163 -10 -325 -10 -437 0 -85 7 -87 7 -81 -14z"/>
<path d="M1037 1391 c-2 -11 -15 -21 -28 -24 -13 -2 126 -5 309 -6 291 -1 336
1 357 15 14 9 25 20 25 25 0 5 -145 9 -329 9 -315 0 -329 -1 -334 -19z"/>
<path d="M790 1305 c45 -24 45 -24 383 -25 320 0 340 1 377 20 22 11 40 23 40
25 0 3 -190 5 -422 5 l-423 -1 45 -24z"/>
<path d="M2941 2307 c-216 -474 -417 -902 -446 -952 l-52 -90 34 -3 c58 -5
140 25 189 70 55 51 77 90 199 361 l99 217 293 0 c161 0 293 -1 293 -3 0 -1
50 -110 110 -242 92 -200 118 -247 157 -287 54 -55 119 -85 223 -104 73 -13
190 -19 190 -9 0 2 -18 34 -40 70 -62 101 -84 149 -475 1010 -202 446 -371
813 -374 817 -4 4 -184 -380 -400 -855z m424 3 c54 -118 102 -223 107 -232 8
-17 -5 -18 -216 -18 l-224 0 95 208 c52 114 101 222 109 241 8 20 18 31 23 25
5 -5 52 -106 106 -224z"/>
<path d="M4755 2337 c-243 -697 -310 -880 -392 -1064 -7 -18 41 -17 103 2 66
19 114 62 151 132 17 32 111 286 209 566 97 279 180 507 183 507 4 0 123 -244
266 -542 142 -299 289 -605 325 -681 l67 -139 273 609 c150 334 289 643 309
687 l36 79 169 -484 c187 -534 213 -599 258 -646 39 -40 126 -79 208 -92 61
-10 160 -15 160 -8 0 2 -22 53 -49 113 -26 60 -181 488 -342 951 -162 463
-297 839 -300 835 -4 -4 -149 -324 -324 -712 -174 -388 -320 -709 -324 -713
-4 -4 -160 313 -345 705 -186 392 -341 716 -344 720 -4 4 -137 -368 -297 -825z"/>
<path d="M11897 3140 c-51 -121 -732 -1610 -765 -1675 -23 -44 -58 -109 -78
-144 l-37 -64 59 6 c74 8 122 27 169 68 48 43 70 82 190 346 l104 228 293 3
293 2 103 -224 c57 -123 117 -245 133 -270 55 -88 178 -141 352 -153 l101 -6
-21 34 c-77 128 -141 263 -483 1014 -210 462 -386 847 -390 855 -6 10 -12 6
-23 -20z m48 -835 c59 -130 106 -238 103 -240 -3 -3 -102 -4 -221 -3 l-215 3
79 175 c113 247 137 300 142 300 2 0 53 -106 112 -235z"/>
<path d="M7361 3113 l-63 -4 7 -32 c19 -94 10 -1629 -11 -1776 l-6 -44 69 6
c135 13 220 63 242 144 7 23 13 330 17 806 l7 768 196 -3 c191 -3 197 -4 253
-31 72 -35 140 -110 169 -185 28 -71 37 -220 19 -301 -32 -146 -125 -245 -258
-278 -31 -7 -115 -16 -185 -20 -70 -3 -126 -10 -125 -14 11 -31 544 -731 586
-769 78 -72 225 -119 376 -120 l58 0 -66 70 c-62 67 -564 729 -569 752 -1 6
20 17 46 24 27 7 87 31 134 53 383 184 409 693 46 884 -135 71 -182 77 -552
75 -179 -1 -355 -3 -390 -5z"/>
<path d="M9157 3109 c-99 -23 -168 -86 -186 -169 -7 -35 -11 -310 -11 -860 l0
-810 180 0 180 0 0 803 c0 718 5 893 25 1015 l6 32 -78 -1 c-43 -1 -95 -5
-116 -10z"/>
<path d="M9576 3093 c14 -65 26 -91 55 -119 l31 -29 289 2 289 3 0 -840 0
-840 195 0 195 0 0 840 0 841 278 -6 c270 -7 278 -6 310 14 36 23 71 89 72
134 l0 27 -860 0 -860 0 6 -27z"/>
<path d="M137 1365 c-11 -10 -17 -32 -17 -58 0 -23 -9 -66 -20 -95 -27 -72
-25 -90 15 -128 l35 -33 -30 -63 c-21 -45 -30 -78 -30 -115 0 -60 16 -78 39
-42 21 32 58 69 69 69 5 0 15 -13 22 -30 7 -16 16 -30 20 -30 4 0 12 32 19 70
7 39 18 70 23 70 6 0 28 -5 49 -11 l38 -12 -20 -26 c-26 -35 -18 -53 41 -91
192 -123 490 -186 840 -177 313 8 538 62 723 174 46 28 57 39 57 60 0 15 -7
34 -16 44 -15 17 -13 18 25 29 51 13 59 9 66 -38 17 -104 25 -115 44 -62 16
46 25 42 91 -40 17 -21 21 -23 30 -10 18 24 6 111 -23 174 l-28 60 30 27 c44
39 47 66 16 138 -18 44 -24 72 -20 94 9 48 -20 72 -77 64 -55 -7 -105 -58
-114 -117 -8 -48 -16 -53 -134 -90 l-85 -27 1 -62 1 -62 -71 -34 c-149 -71
-313 -99 -576 -99 -267 1 -443 33 -582 106 l-58 31 6 51 c3 28 1 56 -3 62 -4
6 -35 19 -68 28 -115 33 -145 47 -145 70 -1 30 -33 98 -58 120 -30 26 -104 33
-125 11z"/>
<path d="M4853 1020 c-11 -25 -55 -124 -98 -220 -43 -96 -82 -179 -85 -183 -4
-5 -36 74 -70 174 -35 100 -73 193 -85 206 -14 18 -34 27 -68 30 l-47 6 19
-44 c10 -24 60 -163 111 -309 50 -146 95 -268 98 -272 4 -4 54 99 112 228 57
129 107 234 110 234 3 0 55 -104 115 -231 60 -126 111 -232 114 -234 4 -2 49
119 101 268 51 150 102 291 111 315 18 40 18 42 0 42 -35 0 -62 -49 -126 -230
-36 -101 -65 -186 -66 -189 0 -3 -51 98 -113 224 l-113 230 -20 -45z"/>
<path d="M5431 787 c-68 -149 -134 -291 -147 -315 -20 -37 -21 -42 -6 -42 36
0 66 36 108 126 l43 94 101 0 101 0 39 -83 c47 -101 71 -125 133 -133 45 -7
58 1 38 22 -5 5 -69 140 -141 299 -72 160 -135 293 -139 297 -4 4 -62 -115
-130 -265z"/>
<path d="M8251 788 c-68 -150 -134 -292 -146 -316 -21 -37 -22 -42 -7 -42 35
0 65 35 107 126 l44 94 101 0 101 0 39 -83 c47 -101 71 -125 133 -133 45 -6
58 1 38 22 -5 5 -69 140 -141 299 -73 160 -135 293 -139 298 -4 4 -63 -116
-130 -265z"/>
<path d="M11465 778 c-70 -156 -136 -298 -147 -315 -19 -33 -19 -33 0 -33 36
0 67 37 107 129 l40 91 103 0 103 0 44 -95 c39 -83 50 -98 80 -110 19 -8 47
-15 64 -15 l29 0 -140 308 c-78 169 -144 311 -148 315 -3 4 -64 -120 -135
-275z"/>
<path d="M12126 1050 c-42 -110 -214 -616 -210 -619 3 -3 17 1 31 9 30 17 39
38 117 260 l54 155 100 -207 c55 -114 103 -217 107 -228 3 -11 9 -20 13 -20 4
0 52 101 107 225 55 123 103 221 106 217 3 -4 32 -81 64 -172 31 -91 63 -177
71 -191 14 -28 58 -49 102 -49 19 0 23 3 16 18 -4 9 -54 151 -112 315 -58 164
-108 294 -112 290 -4 -4 -54 -113 -111 -240 l-104 -233 -38 78 c-20 42 -73
151 -116 242 -47 99 -81 159 -85 150z"/>
<path d="M2452 1008 c9 -13 73 -150 143 -303 69 -153 130 -286 135 -294 7 -13
12 -9 24 19 8 19 73 162 144 318 100 217 126 282 113 282 -38 0 -62 -37 -151
-234 -52 -113 -95 -204 -97 -202 -2 1 -43 90 -92 197 -57 124 -98 201 -114
213 -14 10 -46 21 -73 24 l-48 5 16 -25z"/>
<path d="M3146 1009 l-26 -20 0 -275 0 -274 50 0 50 0 0 258 c0 141 3 274 6
295 6 36 6 37 -23 37 -17 0 -42 -9 -57 -21z"/>
<path d="M3495 1021 c-101 -25 -153 -99 -134 -189 11 -53 55 -89 184 -154 66
-33 123 -66 127 -72 16 -23 7 -63 -18 -87 -24 -23 -32 -24 -149 -23 l-123 0
-16 -27 -16 -27 103 -7 c147 -9 227 12 280 75 49 58 45 140 -11 193 -15 14
-76 49 -137 78 -132 63 -145 72 -145 115 0 65 69 93 184 74 58 -9 72 -8 92 5
42 28 30 42 -43 48 -83 8 -138 7 -178 -2z"/>
<path d="M3865 729 l0 -301 34 6 c64 10 71 25 71 153 l0 113 135 0 135 0 0
-114 c0 -112 1 -115 26 -135 15 -12 38 -21 53 -21 l26 0 0 300 0 300 -26 0
c-15 0 -38 -9 -53 -21 -25 -20 -26 -23 -26 -135 l0 -114 -135 0 -135 0 0 114
c0 112 -1 115 -26 135 -15 12 -38 21 -53 21 l-26 0 0 -301z"/>
<path d="M6173 964 c19 -38 83 -177 142 -309 60 -132 111 -244 115 -248 4 -4
56 99 115 230 59 131 125 273 147 316 35 70 36 77 19 77 -39 0 -70 -48 -158
-242 -48 -108 -91 -194 -94 -190 -3 4 -46 94 -94 200 -58 128 -97 199 -112
209 -13 9 -44 18 -69 21 l-46 5 35 -69z"/>
<path d="M6846 1009 l-26 -20 0 -275 0 -274 50 0 50 0 0 264 c0 145 3 278 6
295 6 29 5 31 -23 31 -17 0 -42 -9 -57 -21z"/>
<path d="M7118 1023 l-48 -4 0 -288 0 -289 104 -7 c174 -12 275 25 336 122 41
64 53 115 48 198 -8 113 -60 195 -154 241 -46 22 -70 27 -147 29 -51 2 -113 1
-139 -2z m204 -53 c47 -13 101 -76 118 -135 8 -27 11 -80 8 -132 -7 -143 -55
-206 -166 -220 -28 -3 -62 -3 -76 1 l-26 6 0 239 c0 131 3 241 7 244 10 10 93
8 135 -3z"/>
<path d="M7591 983 c26 -27 81 -95 123 -152 l76 -102 0 -145 0 -144 55 0 55 0
0 146 c0 91 4 153 12 167 10 20 123 170 183 245 26 31 26 32 5 32 -42 0 -81
-32 -155 -130 -42 -55 -77 -100 -79 -100 -2 0 -36 43 -75 95 -78 104 -106 124
-190 132 l-56 6 46 -50z"/>
<path d="M10765 729 l0 -301 35 6 c60 9 70 33 70 157 l0 109 130 0 130 0 0
-87 c0 -141 22 -183 93 -183 l22 0 0 300 0 300 -22 0 c-71 0 -93 -42 -93 -182
l0 -88 -130 0 -130 0 0 110 c0 104 -1 112 -25 135 -14 15 -36 25 -52 25 l-28
0 0 -301z"/>
<path d="M8730 724 l0 -297 38 6 c62 10 72 33 72 158 l0 109 82 0 c137 0 207
50 216 154 5 62 -22 109 -83 143 -36 21 -53 23 -182 23 l-143 0 0 -296z m251
240 c76 -39 72 -177 -7 -212 -14 -7 -49 -12 -79 -12 l-55 0 0 120 0 120 55 0
c31 0 69 -7 86 -16z"/>
<path d="M9230 730 l0 -290 195 0 c107 0 195 4 195 8 0 5 -8 16 -18 25 -15 14
-41 17 -140 17 l-122 0 0 105 0 105 100 0 100 0 0 30 0 30 -100 0 -100 0 0
105 0 105 123 0 c107 0 126 2 140 18 10 10 17 22 17 25 0 4 -88 7 -195 7
l-195 0 0 -290z"/>
<path d="M9715 730 l0 -290 198 0 c108 0 197 4 197 8 0 5 -8 16 -18 25 -15 14
-41 17 -140 17 l-122 0 0 105 0 105 100 0 100 0 0 30 0 30 -100 0 -100 0 0
105 0 105 123 0 c107 0 126 2 140 18 10 10 17 22 17 25 0 4 -89 7 -197 7
l-198 0 0 -290z"/>
<path d="M10149 998 c8 -22 15 -23 115 -26 l106 -3 0 -264 0 -265 55 0 55 0 0
265 0 264 108 3 c102 3 107 4 110 26 l3 22 -280 0 -280 0 8 -22z"/>
<path d="M1464 634 c3 -9 6 -18 6 -20 0 -2 8 -4 18 -4 18 0 52 -29 52 -43 0
-4 -48 -7 -106 -7 -80 0 -105 -3 -102 -12 3 -7 14 -14 26 -16 17 -3 22 -10 22
-33 0 -24 -4 -29 -25 -29 -22 0 -25 4 -25 34 0 19 -7 42 -16 50 -16 16 -45 21
-57 10 -3 -4 -58 -6 -121 -5 -101 2 -115 0 -110 -13 5 -12 22 -16 75 -16 70 0
82 -7 54 -30 -12 -10 -19 -10 -27 -2 -28 28 -78 3 -78 -37 0 -17 61 -81 72
-75 5 3 0 16 -12 29 -25 26 -23 58 3 63 12 3 16 -2 15 -19 -4 -31 16 -34 32
-4 7 14 22 25 32 25 25 0 23 -13 -6 -42 -24 -23 -24 -25 -6 -36 15 -9 21 -7
34 13 20 31 21 69 1 85 -21 17 -19 30 5 30 27 0 76 -50 59 -61 -10 -6 -8 -14
11 -34 21 -23 26 -24 36 -11 6 9 21 16 33 16 16 0 21 -6 21 -24 0 -13 7 -26
15 -30 13 -4 15 7 15 69 l0 75 65 0 c37 0 65 -4 65 -10 0 -5 -13 -10 -29 -10
-39 0 -64 -26 -56 -57 7 -31 34 -73 46 -73 13 0 11 7 -7 35 -21 32 -12 55 21
55 22 0 25 -4 25 -33 0 -31 14 -57 32 -57 4 0 8 34 8 75 0 63 3 75 16 75 14 0
14 3 4 15 -7 8 -18 15 -26 15 -7 0 -15 9 -19 20 -3 10 -20 31 -36 45 -35 29
-64 34 -55 9z"/>
<path d="M32 558 c-16 -16 -15 -38 4 -59 15 -16 14 -19 -11 -31 -23 -13 -25
-16 -11 -27 13 -11 21 -9 50 8 19 12 37 17 40 12 3 -5 -10 -18 -30 -30 -19
-12 -32 -26 -29 -31 9 -15 27 -12 55 10 32 25 40 25 40 1 0 -10 7 -21 15 -25
13 -4 15 7 15 69 l0 75 95 0 c57 0 95 -4 95 -10 0 -5 -9 -10 -21 -10 -78 0
-80 -85 -3 -128 15 -9 16 -13 5 -26 -17 -20 -31 -21 -31 -1 0 8 5 15 11 15 5
0 7 5 3 11 -3 6 -19 9 -34 6 -25 -5 -27 -4 -22 20 6 30 -14 46 -41 32 -27 -15
-18 -51 18 -68 17 -8 32 -18 34 -23 2 -5 14 -14 28 -19 19 -7 32 -5 51 7 18
12 26 13 32 4 5 -9 9 -9 14 -1 4 6 4 16 0 22 -4 7 -7 26 -8 43 -1 37 -34 50
-43 17 -4 -17 -9 -19 -24 -10 -11 5 -19 20 -19 34 0 21 5 24 43 27 38 3 42 6
45 31 2 19 9 27 23 27 17 0 19 -7 19 -65 0 -54 3 -66 20 -75 19 -10 20 -8 20
65 l0 75 70 0 c64 0 70 -2 70 -20 0 -19 -1 -20 -25 -4 -43 28 -92 -6 -74 -53
10 -27 44 -46 74 -41 14 3 26 -2 34 -14 22 -35 31 -18 31 57 0 73 1 75 25 75
24 0 25 -2 25 -63 0 -58 11 -87 32 -87 4 0 8 34 8 75 l0 75 55 0 c48 0 55 -2
55 -20 0 -16 -7 -20 -34 -20 -39 0 -50 -11 -41 -40 6 -20 35 -28 35 -10 0 6 9
10 20 10 14 0 20 -7 20 -23 0 -23 17 -47 32 -47 4 0 8 34 8 75 0 59 3 75 15
75 9 0 12 6 9 15 -5 13 -60 15 -412 15 -392 0 -405 -1 -389 -18 20 -22 23 -76
5 -70 -7 3 -13 16 -13 31 -1 49 -54 84 -83 55z"/>
<path d="M1702 548 c3 -8 29 -14 71 -16 77 -3 92 -22 18 -22 -28 0 -53 -4 -56
-10 -3 -5 -2 -10 4 -10 15 0 41 -29 41 -46 0 -10 -7 -13 -25 -8 -21 5 -25 3
-25 -16 0 -13 8 -24 19 -27 11 -3 22 -16 26 -30 4 -19 9 -23 17 -15 8 8 8 15
-2 27 -11 13 -10 18 5 29 13 9 16 20 11 39 -5 23 -3 27 14 27 17 0 20 -7 20
-39 0 -25 5 -41 15 -45 13 -4 15 7 15 69 0 73 1 75 25 75 24 0 25 -2 25 -65 0
-54 3 -66 20 -75 19 -10 20 -8 20 65 l0 75 60 0 c53 0 60 -2 60 -19 0 -16 -8
-20 -42 -23 -34 -2 -43 -7 -43 -22 0 -23 35 -47 42 -28 3 6 13 12 24 12 14 0
19 -7 19 -29 0 -16 6 -31 15 -35 13 -4 15 7 15 69 l0 75 30 0 c26 0 30 -3 30
-29 0 -16 -5 -31 -11 -33 -9 -3 -9 -9 -1 -25 14 -26 42 -38 42 -18 0 9 10 15
25 15 18 0 25 -5 25 -20 0 -10 9 -24 20 -30 19 -10 20 -8 20 65 0 59 3 75 15
75 9 0 12 6 9 15 -5 13 -49 15 -311 15 -239 0 -304 -3 -301 -12z"/>
<path d="M3203 200 c14 -9 17 -26 17 -95 0 -69 -3 -86 -17 -94 -26 -15 74 -15
116 0 63 22 80 107 33 160 -25 28 -35 31 -97 36 -54 3 -66 2 -52 -7z m127 -26
c10 -9 15 -34 15 -70 0 -47 -4 -59 -24 -75 -13 -10 -34 -19 -47 -19 -24 0 -24
1 -24 96 l0 97 32 -7 c18 -4 40 -13 48 -22z"/>
<path d="M4153 196 c13 -11 17 -29 17 -89 0 -67 -3 -78 -22 -91 -22 -16 -21
-16 22 -16 36 1 41 3 28 11 -15 8 -18 24 -17 82 l0 72 25 -55 c13 -30 30 -68
38 -85 l14 -30 18 44 c10 24 28 64 40 90 l22 46 1 -78 c1 -72 -1 -78 -21 -87
-18 -7 -11 -9 32 -9 43 0 50 2 33 9 -21 9 -23 16 -23 91 0 66 3 84 18 95 15
12 14 13 -11 14 -29 0 -38 -14 -93 -149 -9 -21 -12 -17 -38 50 -35 91 -42 99
-75 99 -24 -1 -24 -2 -8 -14z"/>
<path d="M4853 199 c14 -8 17 -25 17 -99 0 -76 -3 -89 -17 -94 -10 -3 14 -4
54 -3 59 2 76 7 96 25 53 50 38 140 -27 167 -41 17 -152 21 -123 4z m121 -20
c22 -18 26 -28 26 -74 0 -46 -4 -56 -27 -75 -15 -11 -36 -20 -47 -18 -19 3
-21 11 -24 96 -3 91 -3 92 21 92 13 0 36 -9 51 -21z"/>
<path d="M5623 186 c-25 -21 -28 -31 -28 -81 0 -50 3 -60 28 -81 33 -28 91
-32 124 -9 27 19 46 77 38 115 -16 71 -107 103 -162 56z m114 -13 c24 -36 23
-115 -2 -143 -22 -24 -67 -26 -89 -4 -33 33 -33 119 0 155 26 28 70 24 91 -8z"/>
<path d="M6063 199 c14 -8 17 -25 17 -99 0 -76 -2 -89 -17 -93 -10 -3 9 -5 42
-6 77 -1 109 15 113 56 2 24 -2 34 -18 43 -20 11 -20 13 -5 24 24 17 15 58
-15 73 -31 16 -144 18 -117 2z"/>
<path d="M8393 196 c14 -11 17 -29 17 -95 0 -75 -2 -82 -22 -91 -18 -7 -11 -9
32 -9 44 0 50 2 32 10 -19 7 -23 15 -20 46 4 55 28 53 58 -4 20 -39 31 -49 55
-51 l30 -4 -26 21 c-15 11 -32 34 -39 51 -11 27 -10 32 10 48 18 14 21 25 17
44 -8 31 -50 48 -116 48 -40 -1 -44 -2 -28 -14z"/>
<path d="M773 103 c428 -2 1126 -2 1550 0 425 1 75 2 -778 2 -852 0 -1200 -1
-772 -2z"/>
<path d="M10523 103 c423 -2 1111 -2 1530 0 419 1 74 2 -768 2 -841 0 -1184
-1 -762 -2z"/>
</g>
</svg>
