<?xml version="1.0" standalone="no"?>
<!DOCTYPE svg PUBLIC "-//W3C//DTD SVG 1.0//EN" "http://www.w3.org/TR/2001/REC-SVG-20010904/DTD/svg10.dtd">
<svg xmlns="http://www.w3.org/2000/svg" xmlns:xlink="http://www.w3.org/1999/xlink" id="body_1" width="920" height="264">

<g transform="matrix(1 0 0 1 0 0)">
    <path transform="matrix(0.1333333 0 0 -0.1333333 0 263.9999)"  d="M620 1774C 552 1750 518 1731 499 1710C 483 1691 464 1680 448 1680C 432 1680 402 1663 370 1638C 342 1614 300 1580 278 1562C 251 1540 236 1519 234 1502C 232 1487 223 1435 213 1387C 197 1307 197 1296 211 1272C 224 1248 224 1241 211 1215C 198 1189 199 1176 214 1100C 223 1053 232 1003 234 988C 236 962 251 948 381 843C 409 820 432 810 456 810C 479 810 490 805 490 796C 490 772 539 741 614 719C 653 708 695 692 708 683C 724 674 735 672 743 678C 750 684 787 698 825 710C 912 738 968 768 976 792C 979 804 991 810 1010 810C 1027 810 1054 823 1078 842C 1100 860 1144 895 1174 920C 1214 952 1230 972 1230 989C 1230 1002 1238 1053 1247 1103C 1263 1183 1263 1195 1249 1218C 1236 1242 1236 1248 1249 1272C 1263 1296 1262 1308 1247 1392C 1237 1443 1228 1495 1226 1507C 1225 1520 1206 1542 1184 1558C 1163 1574 1138 1595 1130 1605C 1102 1639 1037 1680 1010 1680C 993 1680 977 1690 963 1709C 947 1730 917 1746 836 1774C 778 1794 727 1809 723 1809C 718 1808 672 1792 620 1774zM838 1715C 981 1681 1094 1590 1162 1454C 1200 1377 1203 1363 1208 1272C 1211 1198 1208 1159 1195 1114C 1138 915 967 776 764 763C 614 753 503 795 394 904C 291 1008 251 1102 250 1246C 249 1462 400 1657 610 1712C 691 1733 757 1734 838 1715z" stroke="none" fill="#000000" fill-rule="nonzero" />
    <path transform="matrix(0.1333333 0 0 -0.1333333 0 263.9999)"  d="M717 1613C 713 1610 710 1593 710 1576C 710 1556 695 1523 670 1486C 648 1454 630 1417 630 1404C 630 1391 626 1380 622 1380C 603 1380 528 1305 508 1267C 497 1244 485 1198 482 1163L482 1163L477 1100L393 1100C 339 1100 311 1096 315 1090C 319 1084 379 1080 463 1080C 551 1080 600 1084 595 1089C 589 1095 565 1100 540 1102C 496 1105 495 1106 492 1142C 485 1221 537 1323 601 1355L601 1355L632 1372L681 1319L730 1266L760 1295C 776 1311 790 1329 790 1335C 790 1342 798 1355 809 1364C 826 1380 830 1379 871 1348C 932 1302 972 1222 968 1155L968 1155L965 1105L918 1102C 891 1100 870 1095 870 1089C 870 1077 1137 1077 1145 1090C 1149 1096 1120 1100 1066 1100L1066 1100L980 1100L980 1148C 980 1212 964 1263 933 1300L933 1300L907 1331L946 1373C 968 1396 996 1429 1010 1446C 1024 1463 1006 1445 970 1407L970 1407L904 1338L862 1366C 832 1386 820 1400 820 1418C 820 1431 807 1458 790 1477C 768 1501 760 1521 760 1548C 759 1595 735 1632 717 1613zM747 1501C 762 1459 762 1456 745 1443C 727 1431 727 1430 748 1430C 763 1430 770 1424 770 1410C 770 1399 764 1390 758 1390C 750 1389 751 1385 762 1377C 782 1361 780 1337 756 1309C 739 1288 713 1288 717 1309C 719 1315 714 1320 706 1320C 698 1320 689 1324 686 1328C 683 1333 695 1335 713 1333L713 1333L745 1331L710 1339C 667 1351 637 1386 644 1416C 647 1428 666 1461 685 1490C 704 1519 721 1556 721 1574L721 1574L723 1605L727 1575C 729 1559 738 1525 747 1501z" stroke="none" fill="#000000" fill-rule="nonzero" />
    <path transform="matrix(0.1333333 0 0 -0.1333333 0 263.9999)"  d="M820 1010C 812 1005 818 999 836 992C 863 982 862 982 818 981C 791 980 770 976 770 972C 770 950 799 940 865 941C 973 941 1047 976 988 999C 973 1005 987 1006 1031 1003C 1073 999 1100 1001 1104 1008C 1112 1021 840 1022 820 1010z" stroke="none" fill="#000000" fill-rule="nonzero" />
    <path transform="matrix(0.1333333 0 0 -0.1333333 0 263.9999)"  d="M1675 1418C 1577 1202 1476 985 1451 935C 1426 886 1404 842 1402 838C 1395 822 1456 831 1487 849C 1524 872 1551 916 1616 1063L1616 1063L1663 1170L1815 1170L1967 1170L2021 1048C 2098 873 2149 830 2278 830L2278 830L2317 830L2274 913C 2251 958 2150 1175 2050 1395C 1950 1615 1865 1799 1861 1803C 1857 1807 1773 1634 1675 1418zM1879 1363C 1907 1301 1930 1248 1930 1245C 1930 1242 1878 1240 1815 1240C 1752 1240 1700 1242 1700 1244C 1700 1246 1714 1279 1731 1317C 1748 1354 1773 1409 1786 1439C 1801 1471 1814 1490 1819 1484C 1824 1479 1851 1424 1879 1363z" stroke="none" fill="#000000" fill-rule="nonzero" />
    <path transform="matrix(0.1333333 0 0 -0.1333333 0 263.9999)"  d="M2591 1367C 2507 1124 2427 904 2413 878L2413 878L2390 830L2416 830C 2463 830 2505 865 2532 927C 2546 959 2595 1092 2640 1223C 2685 1353 2725 1460 2729 1460C 2732 1460 2768 1391 2807 1307C 2847 1224 2923 1065 2975 956L2975 956L3071 756L3156 946C 3203 1050 3273 1208 3313 1297C 3353 1386 3388 1460 3391 1460C 3395 1460 3439 1340 3491 1194C 3542 1047 3593 914 3605 896C 3629 860 3696 831 3758 831C 3781 830 3800 832 3800 834C 3800 836 3789 862 3776 891C 3764 921 3686 1136 3605 1370C 3524 1604 3454 1798 3451 1802C 3447 1806 3370 1645 3280 1444C 3190 1243 3113 1077 3109 1075C 3106 1072 3025 1237 2929 1440C 2833 1643 2753 1809 2750 1810C 2747 1810 2676 1611 2591 1367z" stroke="none" fill="#000000" fill-rule="nonzero" />
    <path transform="matrix(0.1333333 0 0 -0.1333333 0 263.9999)"  d="M6318 1804C 6315 1799 6224 1601 6116 1363C 6008 1126 5906 908 5890 879L5890 879L5859 827L5898 832C 5964 841 5987 865 6042 979C 6070 1037 6101 1104 6111 1128L6111 1128L6129 1170L6280 1170L6431 1170L6491 1043C 6524 972 6563 903 6578 887C 6607 857 6683 830 6742 830C 6763 830 6780 832 6780 835C 6780 837 6765 868 6746 902C 6727 937 6630 1144 6531 1363C 6327 1812 6325 1816 6318 1804zM6343 1368L6399 1245L6288 1242C 6227 1241 6175 1242 6172 1244C 6166 1250 6272 1490 6281 1490C 6284 1490 6312 1435 6343 1368z" stroke="none" fill="#000000" fill-rule="nonzero" />
    <path transform="matrix(0.1333333 0 0 -0.1333333 0 263.9999)"  d="M3925 1310L3925 830L3953 830C 3993 830 4045 854 4064 881C 4078 901 4080 944 4080 1215C 4080 1385 4083 1568 4086 1621L4086 1621L4093 1718L4164 1723C 4268 1729 4325 1715 4369 1671C 4467 1573 4443 1378 4325 1320C 4303 1310 4250 1297 4207 1293L4207 1293L4129 1285L4278 1084C 4446 858 4462 845 4585 833L4585 833L4652 827L4625 856C 4600 882 4344 1218 4327 1246C 4323 1253 4342 1265 4379 1279C 4451 1305 4521 1365 4550 1426C 4600 1528 4570 1660 4482 1727C 4411 1781 4362 1790 4131 1790L4131 1790L3925 1790L3925 1310z" stroke="none" fill="#000000" fill-rule="nonzero" />
    <path transform="matrix(0.1333333 0 0 -0.1333333 0 263.9999)"  d="M4852 1773C 4790 1743 4790 1746 4790 1265L4790 1265L4790 830L4880 830L4970 830L4971 1263C 4971 1500 4975 1716 4979 1743L4979 1743L4987 1790L4936 1790C 4908 1790 4870 1782 4852 1773z" stroke="none" fill="#000000" fill-rule="nonzero" />
    <path transform="matrix(0.1333333 0 0 -0.1333333 0 263.9999)"  d="M5110 1770C 5110 1758 5122 1737 5136 1723L5136 1723L5162 1697L5306 1704L5450 1711L5452 1273L5455 835L5552 832L5650 829L5652 1267L5655 1705L5800 1701C 5942 1698 5945 1698 5966 1721C 5978 1734 5991 1755 5995 1768L5995 1768L6001 1790L5556 1790C 5113 1790 5110 1790 5110 1770z" stroke="none" fill="#000000" fill-rule="nonzero" />
    <path transform="matrix(0.1333333 0 0 -0.1333333 0 263.9999)"  d="M203 883C 196 881 190 870 190 860C 190 851 184 824 176 802C 162 765 163 759 180 738C 196 717 196 711 184 690C 169 663 165 586 179 594C 183 597 185 611 182 625C 178 646 196 710 206 710C 208 710 220 705 234 699C 250 691 257 682 253 671C 249 659 250 658 258 668C 263 676 276 680 286 678C 300 676 304 668 302 647C 299 621 304 617 375 584C 417 564 454 551 458 554C 461 557 468 556 474 551C 496 533 607 520 739 520C 892 520 1002 541 1096 587C 1162 619 1177 635 1161 653C 1148 669 1156 680 1181 680C 1199 680 1210 661 1210 627C 1211 605 1211 605 1226 625C 1241 645 1242 645 1266 615C 1279 599 1290 590 1290 596C 1290 612 1243 653 1232 646C 1223 641 1210 661 1210 680C 1210 685 1219 694 1231 700C 1248 709 1254 708 1266 693C 1281 676 1281 676 1271 695C 1264 711 1266 720 1283 738C 1301 758 1303 764 1292 793C 1285 812 1280 835 1280 846C 1280 870 1262 890 1240 890C 1229 890 1228 888 1238 882C 1255 871 1244 845 1215 826C 1193 812 1191 812 1187 828C 1183 841 1182 840 1181 823C 1180 803 1151 787 1071 764C 1062 761 1059 751 1064 729C 1069 701 1067 697 1025 679C 1000 668 982 655 985 650C 988 646 973 642 952 642C 817 641 613 626 601 616C 590 607 595 604 626 598C 647 594 682 591 703 591C 737 590 741 587 738 568C 736 556 730 545 723 543C 716 540 713 547 716 562C 718 575 718 579 714 573C 711 566 704 560 699 560C 693 560 692 565 695 570C 698 576 697 580 692 580C 687 580 680 571 677 559C 673 545 667 541 659 546C 649 552 649 555 658 558C 665 560 668 566 664 571C 654 587 640 581 640 560C 640 542 637 541 620 550C 599 561 593 580 611 580C 616 580 618 576 615 570C 612 565 614 560 619 560C 625 560 630 567 630 575C 630 583 621 590 610 590C 599 590 590 584 590 576C 590 568 586 558 580 555C 568 548 578 610 591 625C 597 631 577 639 539 647C 506 654 459 668 435 680C 397 698 392 705 394 732C 395 758 390 764 365 772C 310 789 254 819 230 845C 209 867 208 873 220 880C 236 890 224 892 203 883z" stroke="none" fill="#000000" fill-rule="nonzero" />
    <path transform="matrix(0.1333333 0 0 -0.1333333 0 263.9999)"  d="M2942 564C 2903 478 2872 404 2875 402C 2885 392 2908 422 2925 465L2925 465L2942 510L2999 510L3057 510L3074 466C 3094 415 3111 397 3138 402C 3156 405 3152 418 3096 540C 3062 614 3030 686 3024 699C 3015 720 3007 706 2942 564z" stroke="none" fill="#000000" fill-rule="nonzero" />
    <path transform="matrix(0.1333333 0 0 -0.1333333 0 263.9999)"  d="M2604 600C 2577 540 2553 490 2550 490C 2547 490 2532 527 2516 573C 2501 618 2481 665 2474 678C 2459 701 2414 710 2423 688C 2425 681 2449 614 2475 540C 2501 466 2526 401 2530 397C 2534 393 2561 444 2591 511L2591 511L2645 634L2705 506L2766 379L2821 537C 2852 624 2875 697 2874 699C 2863 712 2839 668 2810 584C 2772 472 2776 471 2709 615C 2685 667 2662 710 2659 710C 2655 710 2630 661 2604 600z" stroke="none" fill="#000000" fill-rule="nonzero" />
    <path transform="matrix(0.1333333 0 0 -0.1333333 0 263.9999)"  d="M4410 564C 4332 390 4336 400 4349 400C 4355 400 4372 425 4387 455L4387 455L4414 510L4466 510L4519 510L4547 458C 4569 417 4581 404 4602 402L4602 402L4629 399L4558 554C 4519 640 4484 710 4481 710C 4478 710 4446 644 4410 564z" stroke="none" fill="#000000" fill-rule="nonzero" />
    <path transform="matrix(0.1333333 0 0 -0.1333333 0 263.9999)"  d="M6083 555C 6038 458 6017 400 6025 400C 6032 400 6049 425 6064 455L6064 455L6090 510L6145 510L6199 510L6221 460C 6236 425 6250 408 6267 404C 6280 400 6293 400 6296 402C 6301 408 6168 709 6159 710C 6156 710 6121 640 6083 555z" stroke="none" fill="#000000" fill-rule="nonzero" />
    <path transform="matrix(0.1333333 0 0 -0.1333333 0 263.9999)"  d="M6395 598C 6374 536 6348 466 6338 442C 6322 402 6322 399 6337 402C 6348 404 6365 439 6389 507C 6409 564 6427 610 6431 610C 6434 610 6461 558 6491 493L6491 493L6545 377L6595 489C 6622 551 6647 603 6651 606C 6654 608 6672 568 6690 517C 6728 410 6734 400 6766 400C 6789 400 6790 401 6777 428C 6769 443 6744 512 6720 583C 6696 653 6674 710 6670 710C 6667 710 6643 658 6615 595C 6588 532 6561 482 6557 483C 6552 484 6525 536 6497 597C 6468 659 6442 709 6439 710C 6436 710 6416 659 6395 598z" stroke="none" fill="#000000" fill-rule="nonzero" />
    <path transform="matrix(0.1333333 0 0 -0.1333333 0 263.9999)"  d="M1402 692C 1418 651 1544 381 1546 383C 1556 393 1689 695 1685 698C 1674 710 1650 673 1609 580C 1585 525 1563 480 1560 480C 1557 480 1535 524 1511 578C 1486 631 1462 681 1457 688C 1447 701 1396 705 1402 692z" stroke="none" fill="#000000" fill-rule="nonzero" />
    <path transform="matrix(0.1333333 0 0 -0.1333333 0 263.9999)"  d="M1895 675C 1869 650 1863 612 1879 582C 1884 572 1920 549 1959 530C 2040 491 2056 467 2019 437C 1999 421 1984 419 1938 423C 1895 427 1880 425 1876 414C 1872 403 1886 400 1946 400C 2016 400 2024 402 2051 429C 2107 486 2084 531 1974 581C 1921 605 1910 614 1910 635C 1910 668 1941 682 2002 678C 2037 676 2055 679 2057 688C 2061 697 2043 700 1990 700C 1928 700 1916 697 1895 675z" stroke="none" fill="#000000" fill-rule="nonzero" />
    <path transform="matrix(0.1333333 0 0 -0.1333333 0 263.9999)"  d="M2135 550C 2135 415 2137 400 2152 400C 2177 400 2190 431 2190 489L2190 489L2190 540L2260 540L2329 540L2332 473C 2335 411 2337 405 2358 402C 2380 399 2380 399 2380 550C 2380 701 2380 701 2358 698C 2337 695 2335 689 2332 628L2332 628L2329 560L2260 560L2190 560L2190 611C 2190 669 2177 700 2152 700C 2137 700 2135 685 2135 550z" stroke="none" fill="#000000" fill-rule="nonzero" />
    <path transform="matrix(0.1333333 0 0 -0.1333333 0 263.9999)"  d="M3360 623C 3380 580 3412 510 3431 468C 3450 425 3467 390 3470 390C 3473 390 3508 460 3547 546C 3597 655 3614 700 3603 698C 3594 696 3566 650 3540 592C 3514 535 3489 489 3484 490C 3479 490 3457 531 3435 579C 3388 683 3375 700 3345 700C 3323 700 3324 698 3360 623z" stroke="none" fill="#000000" fill-rule="nonzero" />
    <path transform="matrix(0.1333333 0 0 -0.1333333 0 263.9999)"  d="M3805 550L3805 400L3880 400C 3998 400 4052 448 4052 550C 4052 652 3998 700 3880 700L3880 700L3805 700L3805 550zM3951 670C 3986 651 4002 603 3998 532C 3994 477 3990 464 3966 444C 3948 427 3926 420 3899 420L3899 420L3860 420L3860 550L3860 680L3896 680C 3915 680 3940 675 3951 670z" stroke="none" fill="#000000" fill-rule="nonzero" />
    <path transform="matrix(0.1333333 0 0 -0.1333333 0 263.9999)"  d="M4082 673C 4096 657 4123 623 4143 596C 4178 550 4180 543 4180 474C 4180 402 4181 400 4205 400C 4230 400 4230 401 4230 479L4230 479L4230 558L4285 629C 4316 670 4334 700 4326 700C 4312 700 4270 657 4236 609L4236 609L4219 585L4169 643C 4128 689 4113 700 4087 700L4087 700L4056 700L4082 673z" stroke="none" fill="#000000" fill-rule="nonzero" />
    <path transform="matrix(0.1333333 0 0 -0.1333333 0 263.9999)"  d="M4670 549C 4670 399 4670 399 4693 402C 4713 405 4715 411 4718 472L4718 472L4721 539L4769 538C 4823 538 4854 553 4869 587C 4886 624 4882 639 4851 671C 4824 698 4816 700 4746 700L4746 700L4670 700L4670 549z" stroke="none" fill="#000000" fill-rule="nonzero" />
    <path transform="matrix(0.1333333 0 0 -0.1333333 0 263.9999)"  d="M4930 550L4930 400L5031 400C 5095 400 5129 404 5125 410C 5122 416 5088 420 5049 420L5049 420L4980 420L4980 480L4980 540L5035 540C 5065 540 5090 545 5090 550C 5090 556 5065 560 5035 560L5035 560L4980 560L4980 620L4980 680L5049 680C 5088 680 5122 685 5125 690C 5129 696 5095 700 5031 700L5031 700L4930 700L4930 550z" stroke="none" fill="#000000" fill-rule="nonzero" />
    <path transform="matrix(0.1333333 0 0 -0.1333333 0 263.9999)"  d="M5180 550L5180 400L5282 400C 5395 400 5409 417 5300 422L5300 422L5235 425L5235 480L5235 535L5288 538C 5316 540 5340 545 5340 550C 5340 555 5316 560 5288 562L5288 562L5235 565L5235 620L5235 675L5300 678C 5409 683 5395 700 5282 700L5282 700L5180 700L5180 550z" stroke="none" fill="#000000" fill-rule="nonzero" />
    <path transform="matrix(0.1333333 0 0 -0.1333333 0 263.9999)"  d="M5410 690C 5410 685 5435 680 5465 680L5465 680L5520 680L5520 540L5520 400L5550 400L5581 400L5579 538L5578 675L5634 678C 5665 680 5690 685 5690 690C 5690 696 5632 700 5550 700C 5463 700 5410 696 5410 690z" stroke="none" fill="#000000" fill-rule="nonzero" />
    <path transform="matrix(0.1333333 0 0 -0.1333333 0 263.9999)"  d="M5725 550C 5725 421 5727 400 5741 400C 5769 400 5780 423 5780 482L5780 482L5780 540L5850 540L5919 540L5922 473C 5925 411 5927 405 5948 402C 5970 399 5970 399 5970 550C 5970 701 5970 701 5948 698C 5927 695 5925 689 5922 628L5922 628L5919 560L5850 560L5780 560L5780 618C 5780 677 5769 700 5741 700C 5727 700 5725 679 5725 550z" stroke="none" fill="#000000" fill-rule="nonzero" />
    <path transform="matrix(0.1333333 0 0 -0.1333333 0 263.9999)"  d="M130 444C 130 427 147 425 153 443C 155 449 161 452 165 448C 169 444 162 431 149 419C 131 403 129 400 143 404C 153 407 165 410 170 410C 175 410 181 420 183 433L183 433L187 455L189 433C 189 420 182 406 170 400C 159 394 150 384 150 378C 150 371 155 372 165 380C 177 390 183 390 195 380C 208 369 210 373 210 409L210 409L210 450L260 450C 288 450 310 446 310 440C 310 435 301 430 290 430C 276 430 270 424 271 408C 272 391 273 389 277 403C 279 412 290 420 300 420C 310 420 320 427 324 435C 334 462 350 451 350 416C 350 397 355 378 360 375C 366 371 370 385 370 409C 370 449 371 450 404 450C 423 450 442 445 446 439C 449 433 445 429 434 430C 400 434 390 430 390 415C 390 399 424 377 434 388C 438 391 445 388 450 380C 457 369 460 377 460 408C 460 439 464 450 475 450C 485 450 490 440 490 416C 490 397 494 378 500 375C 506 371 510 385 510 409C 510 448 512 450 540 450C 560 450 570 445 570 435C 570 427 561 420 550 420C 539 420 530 415 530 409C 530 403 539 401 550 405C 564 409 570 407 570 396C 570 388 574 379 579 376C 584 373 590 390 592 415L592 415L595 460L363 460C 167 459 130 456 130 444z" stroke="none" fill="#000000" fill-rule="nonzero" />
    <path transform="matrix(0.1333333 0 0 -0.1333333 0 263.9999)"  d="M518 223C 739 221 1101 221 1323 223C 1544 224 1363 225 920 225C 477 225 296 224 518 223z" stroke="none" fill="#000000" fill-rule="nonzero" />
</g>
</svg>